<svg id="Layer_1" data-name="Layer 1" xmlns="http://www.w3.org/2000/svg" xmlns:xlink="http://www.w3.org/1999/xlink" viewBox="0 0 2560 1600"><defs><style>.cls-1{fill:#fff;}.cls-2{mask:url(#mask);}.cls-3{fill:#8762fb;}.cls-4{fill:#f9f9f9;}</style><mask id="mask" x="618.97" y="709.23" width="2026.3" height="2014.81" maskUnits="userSpaceOnUse"><g id="mask0_20_11" data-name="mask0 20 11"><path class="cls-1" d="M986.52,1599.31H2570.91V709.23H986.52Z"/></g></mask></defs><g class="cls-2"><path class="cls-3" d="M619,2724h2026.3V867.23q-80.33-6.94-162.5-7C1453.43,860.25,619,1694.68,619,2724Z"/></g><path class="cls-1" d="M1281.84,1597.69l70-151.64s-65.63,35.69-91,27.62-66.9-10.48-39-224.66l-28.16-9,54-121.06s-73.16-59.26-43.93-110.57S1254,959.91,1266.05,901s24.58-210.55,55.26-257.82c21.73-33.49,19.3-59.3,120.85-80s149.5,45.07,147,53.62,43.12,4.16,54.44,64.71c0,0-9.35,59.25-24.34,74.21,0,0,18.61,12.68,11.14,40.53s-15.47,29.27-15.47,29.27l-7.39,23.21s25.65,40.27,30.08,82.86-15,96.63-15,96.63l10.54,14.77,23.13,26,34.86-4.17s-6.63-16.5,2.1-27.42,17.45-16.53,26.75-16.33,103.25.58,103.25.58,22.34,10.27,25.52,20.46,13.73-38.62,78.71-67.43l57.93-10.89,12.87-7.26L1996.68,903,1968.19,901s-25.18-8.73-26-10-29-28.2-29-28.2-22.49-69-20-117.52,0-90.16,0-90.16l124.23-38.5,75.73,33.68,56.54,79.37s17.87,18.32,18.29,21.23-6.65,47.68-6.65,47.68l-29.94,33.07L2111.8,858l-1.67,49.16.42,47,92.29,28.68s71.5,37.83,80.65,65.27,27.54,115.15,28.32,157.14,1.61,81.57,1.61,81.57-9.14,10.3-9.14,11.55,1.66,48.22,1.66,48.22-5.46,62.53-18.94,79.07-14.73,26.44-14.73,26.44l14.52,146.56-454.59,8.12,12.7-129.39-33.46,14.25s-22.66,5.37-36.37,0-47.37-49-47.37-49-9.17,23-22.06,34.76-31.18,28.42-31.18,28.42l25.83,91.31H1282.44"/><path d="M2008,827.27c.51,15.27-13.91,29.81-29.74,30.76-1.43-.55-2.86-1.06-4.29-1.58-3-1.1-6.14-2.24-9.11-3.56a4.27,4.27,0,0,1-2-3.6c.15-1,2-2.35,3.2-2.53a51.63,51.63,0,0,0,7.48-1.69c11.24-3.34,20.16-10.21,27.1-20.38.92-1.35,3.27-1.76,5-2.6C2006.44,823.81,2008,825.5,2008,827.27Z"/><path d="M1926.44,732.5a190,190,0,0,1-21.07,5.84l-1,.22c-3.71.77-5.4-.84-5.55-3.63a11.08,11.08,0,0,1,.29-3c2.25-9.8,12.82-18.32,24.24-18.43,4.55,0,10,1.29,11.34,7.71C1936,727.36,1931.62,730.82,1926.44,732.5Z"/><path d="M2008.85,710.49c10.47.82,18.87,6.1,25.3,14.63,1.09,1.44,2.06,4.46,1.33,5.42a7.19,7.19,0,0,1-5.73,2.47c-9-1.48-18.14-3-26.88-5.61-3.13-.95-5.3-5.09-7.92-7.77,3-2.84,5.8-5.84,9-8.41C2004.94,710.4,2006.88,710.74,2008.85,710.49Z"/><path d="M2007.12,782c-5.82.19-10.35-4.93-10.44-11.78s4.71-13,10.26-13.13c5.73-.17,10.22,4.95,10.42,11.87S2012.84,781.8,2007.12,782Z"/><path d="M1931.07,772c-.15,6.65-4.45,11.68-9.77,11.46-5.51-.22-9.18-5.18-8.92-12.16.22-6.71,4.48-11.82,9.69-11.6S1931.18,765.29,1931.07,772Z"/><path d="M1968.19,802.78c0,.88-.08,1.72-.12,2.57-1.24,0-2.53.07-3.81.18-3.16.18-6.36.4-9.07-.62-1.8-.7-2.72-6.14-2.5-9.33q.39-5.62.88-11.23c.77-9.22,1.77-18.44,2.72-27.65a65.15,65.15,0,0,1,1.69-7.78c.81.07,1.58.14,2.35.25-.7,14.4-1.4,28.75-2.06,43.25v.07c-.15,2.47-.26,5-.37,7.42,1.58.44,3.09.88,4.56,1.25C1964.4,801.71,1966.31,802.26,1968.19,802.78Z"/><path d="M1591.39,785.65A13.26,13.26,0,0,1,1578,798.56c-7.83.06-13.31-5.15-13.32-12.67a13.17,13.17,0,0,1,13.54-13.52C1585.4,772.59,1591.43,778.67,1591.39,785.65Z"/><path d="M1492.58,793.82c.12,7-5.91,13.57-12.65,13.79a13.25,13.25,0,0,1-13.39-12.88c-.11-7.24,5.69-13.5,12.65-13.67A12.93,12.93,0,0,1,1492.58,793.82Z"/><path d="M1484.8,739.66c.92.62,4.32,1.78,5.25,4,.7,1.63-1.19,5.88-3,6.79-8.59,4.3-17.49,8-26.44,11.52-1.43.56-4-.37-5.29-1.5-.66-.61.09-3.35.84-4.79C1460.11,748,1474.25,739.57,1484.8,739.66Z"/><path d="M1543.23,848.34c-1.19,13.7-14,22.14-28.33,19.88-14.69-2.33-28.39-14.29-26-24.15C1505.43,862.15,1522.84,871,1543.23,848.34Z"/><path d="M1603.62,744c-4,.48-7.61,1.42-11.14,1.2a138.81,138.81,0,0,1-19.72-2.51c-1.93-.4-4.51-3.18-4.68-5.06s1.81-4.77,3.65-5.95C1580.52,726.09,1598.6,732.55,1603.62,744Z"/><path d="M1529.12,824.41c12.72-2.18,9.49-10.21,8.3-17.81-1.46-9.24-2.32-18.57-3.45-27.87l2.47-.6a73.18,73.18,0,0,1,2.39,8c1.68,9.07,3.22,18.16,4.68,27.27C1545.22,824,1541.39,827.43,1529.12,824.41Z"/><path d="M2303.85,1283.49c-48.12-7.1-96.62-7.51-145.11-7.1-10.7.09-11,0-10.17-10.58q5.78-77.13,11.82-154.23a16.88,16.88,0,0,0-1-8.63c-1.92,11.17-4.56,22.23-5.61,33.46-4.13,44.93-8.39,89.87-11.16,134.92-.84,13.35-3.8,25.74-7.23,39.51-11.66-6.26-22.56-11.75-33.14-17.89-32.89-18.94-65.76-37.91-98.3-57.4a47.43,47.43,0,0,1-14.23-13.56c-4.26-6.13-8.63-12.11-13.19-17.86-24.32-30.58-53.66-55.06-91.17-70-2.34-1-4.56-4-5.48-6.49-8.36-23.06-16.6-46.19-24.5-69.39l-1.31-3.85c-.89-2.63-.18-6.69,1.31-9.07,25.47-40.26,62-64.83,108.07-75.51,3.49-.8,7-1.44,10.56-2.06,4.26-.78,8.61-1.49,13.17-2.34-.39,5.66-1.19,9.92-.94,14.16,1,15.3,10.77,23.79,23.69,29,.34.16.66.27,1,.41,20.68,8,41.89,6.48,62.89,1.4a123.78,123.78,0,0,0,25.19-9.14c15-7.45,25.77-18.6,26.46-37.5,7.17,1.58,13.53,3,20.43,4.45-4.58,22.4-17.48,39.64-28.93,57.62,18.28-14.22,27.28-33.64,30.69-57.28,9.66,2.93,18.71,5.36,27.58,8.43,9.66,3.34,19.21,6.94,28.48,11.06,18.79,8.22,36.49,18.44,52.06,32.66,21.9,20.06,31.66,46.24,37.7,74.18,9.23,42.26,12.28,85.25,15.21,128.28,1.24,17.66,2,35.32,3.11,53C2312.17,1282.18,2310.22,1284.41,2303.85,1283.49Zm-23.29,139.13c-8.5,18.94-19.38,36.17-36.58,48.65-13.9,10-28.76,12.48-45.14,6.92-24.62-8.36-45.87-22.77-67.24-36.9-38.09-25.19-69.9-57.81-103.34-88.45q-26.87-24.67-54.28-48.69c-3.52-3.12-7-6.16-10.56-9.23-2.84-2.5-7.83-3.87-11.65-3.57-21.21,1.6-42.37,4.19-63.58,5.86-40.54,3.18-77.18-10.93-113.56-26.07a27.22,27.22,0,0,1-8.24-5.56,33.64,33.64,0,0,1-6.6-8.89c33.38,8.06,65,23.23,100,21,.25-1.14.52-2.26.75-3.36-4.26-.85-8.54-1.38-12.69-2.57-28.12-7.79-56.31-15.41-84.26-23.75a24.7,24.7,0,0,1-3.78-1.46c-6.66-3.16-11.2-9.14-12.48-18.58,8,2.68,15.9,5.32,23.8,7.81,29,9.21,57.81,16.72,87.92,18.48.26-.8.53-1.64.76-2.47-3.37-1.24-6.64-2.82-10.08-3.66-22.88-5.66-45.94-10.77-68.71-16.91-1.3-.34-2.63-.73-4-1.12-10.67-3.14-21.14-7.28-31.58-11.26a49.31,49.31,0,0,1-13.19-7.7c-2.36-1.93-5.25-7.17-4.42-8.29,2.17-2.82,6.23-5.71,9.59-5.8,6.83-.13,13.77,1.24,20.52,2.59a431.61,431.61,0,0,0,44.43,6.37c40.22,3.64,80.28,1,120.15-10.29,4.15-1.16,8.09-3.13,12.12-4.71-.18-.8-.37-1.63-.55-2.41-6.23,0-12.48-.09-18.76,0-17.36.37-40-17.54-42.67-34.67-.61-4,.67-9.74,3.37-12.28,2-2,8.27-1.46,11.59.16,33.85,16.72,63,39.39,86.34,68.71,2.48,3.11,4.86,6.21,7.17,9.43,8.47,11.8,19,20.6,30.81,28.43,53.41,35.29,109.91,64.91,167.67,92.3,14.54,6.91,28.21,15.64,42.32,23.52,3.64,2,7.38,4,11.09,6,.52-.81,1.07-1.61,1.58-2.36-6.42-5.2-12.46-11-19.38-15.44a315.46,315.46,0,0,0-29.52-16.56c-5.63-2.79-8.34-6.16-8.52-12.85-.3-12.68-1.72-25.37-2.7-38.38,2.4-.34,3.87-.83,5.36-.76q50.7,2.13,101.41,4.33c1.31,0,3.12-.07,3.73.73,7.13,8.82,17.71,16.68,17.25,28.91C2301,1353.89,2295.42,1389.35,2280.56,1422.62ZM1830.3,1303.06l-30.2-13.54,39.1,11.56A63,63,0,0,1,1830.3,1303.06Zm-51.61,187.47c-5.86-2.45-12.14-5-17.5-8.54a34.38,34.38,0,0,1-6.11-4.81c-11.27-11.27-18.83-24.65-24.62-39-1.82-4.37-5.32-16.46-5.64-19.1-.68-5.66-1.52-13.24-2.35-21.35-2.56-25.13-5.71-63-6.21-100.61,0-1.37,0-2.67,0-4a14.44,14.44,0,0,0,1.1-5.51v-7.76a28.57,28.57,0,0,0,0-10.63v-18.56c.34-4.93.75-9.64,1.23-14.09a143,143,0,0,0,10.13,12.18l.24.23a153.55,153.55,0,0,0,14.55,13.66l1.91-2.32.18,0a2.54,2.54,0,0,0,.1-.37l2.18-2.65a146.79,146.79,0,0,1-14.23-13.41l-.24-.23a128.67,128.67,0,0,1-14.21-18.28c-1.1-1.7-2.06-3.28-2.87-4.67-.11-.24-.25-.5-.46-.87l-.15-.3a9,9,0,0,0-1.31-1.89l-1.24-5c.53-15.21-7.33-29.32-7.72-44.38-.06-3.56-.64-7.08-1.07-11.46,5.91,6.39,10.85,11.75,16.24,17.55-10,12-3.9,24.76.94,36.51,2.15,5.1,9.59,7.85,14.26,12.06a22.83,22.83,0,0,1,5,7.26c3.57,8.18,6.3,16.84,10.17,24.74a69,69,0,0,0,4,7.3l0,0a44.47,44.47,0,0,0,7.49,9,40.45,40.45,0,0,0,13.24,8,11.34,11.34,0,0,1,2.42,1.17l4.06,15.71,6.28,25.9,0,0c.44,1.33.85,2.66,1.19,4,4,14.79,7.86,29.68,11.68,44.54q1.15,4.39,2.29,8.79l6.36,33.49q.17,2.58.33,5.19a133.14,133.14,0,0,1-7.59,48.15l-7.29,20.5C1790.46,1490.94,1785,1493.13,1778.69,1490.53Zm-57.62-43.38c-3.26,11.32-12.42,23.2-21.6,23.82h-.14c-5.45.3-11.77-3.91-16.6-7.47-4.38-3.22-7.24-8.45-9.12-10.78.71-6.25,2.4-10.65,1.49-14.48q-10.81-45.16-21.92-90.26-3.92-15.8-7.81-31.65l59.05-14.31,2-.48a14.63,14.63,0,0,0,3-1.14c.64,36.83,3.69,73.48,6.19,98,.82,8,1.64,15.41,2.32,21.06l1.21,7.43C1719.86,1429.23,1722.46,1442.28,1721.07,1447.15Zm-54.56-.43c-15,10.3-32.06,16-49.68,19.81q-21.52,4.71-43,7.28a409.07,409.07,0,0,1-173.63-16.21c-9.09-2.89-17.84-7-28.92-11.39,30.8-18.59,51.09-50.38,70.84-78,0,0,14.72-30.39,29-44,0,0,89.41-3.64,121.36-12a120.15,120.15,0,0,0,13.17-7.61l1.51,6.26a14.24,14.24,0,0,0,17.29,10.53l16.7-4.05q4.18,17.07,8.34,34.12,10.57,43.43,20.93,86.88C1671,1440.76,1668.73,1445.14,1666.51,1446.72Zm-373.2,21.07a129.23,129.23,0,0,1-15.51,4.49c-19.69,4.49-34.92-1.84-45.18-19.17a94.79,94.79,0,0,1-5-9.44,124.84,124.84,0,0,1-10.1-35.2,199.58,199.58,0,0,1-1.9-26.48c-.37-28.42,1.51-56.84,2.74-85.24a34.71,34.71,0,0,1,5.78-17.32c3.62-5.9,8.52-11.15,13-16.69,3.64-4.51,7.35-7.06,11.58-7.9,3.49-.69,7.26-.26,11.64,1.12,20.79,6.44,41.75,12.35,62.66,18.3,5.52,1.6,7.1,4.74,6.44,10.26-.51,4.42-.9,8.84-1.29,13.28-.59,7.06-1.16,14.13-2.17,21.14-.37,2.77-3.44,5.84-6.09,7.45-13.72,8.47-27.88,16.3-41.48,24.94-4.22,2.68-7.35,7.12-11,10.78.5.55,1,1.15,1.58,1.75,1.78-1.13,3.59-2.2,5.43-3.3,14.88-9,29.15-19.47,44.86-26.73,12.67-5.89,25-12.23,37.08-18.94,28.86-16,56.39-34.2,83.6-53.14,29.61-20.63,61.22-38.4,92-57.28,10-6.18,20.27-12.11,30.73-17.52,3.16-1.65,7.49-1,11.27-1.46.26,3.89,2,8.45.6,11.54-5.71,12.3-13.88,22.65-27.07,27.87-3.53,1.42-7.06,2.66-10.42,5.41a45,45,0,0,0,5.42.46c44.07-2.57,88.2-4.67,130.14-20.71a30.18,30.18,0,0,1,11.29-1.83,9.33,9.33,0,0,1,7.35,15,29.46,29.46,0,0,1-7.44,6.51c-28.26,18.43-59.71,28-92.57,33.8-2.2.37-4.36,1-7,1.58,5.29,3.87,13.2,4.6,25.88,2,8.71-1.76,17.29-4.21,27.53-6.78-14.54,15.42-33.94,20.78-49.49,31.75.5,1,1,2,1.49,3l29.52-11.95c.39.41.73.84,1.1,1.26-7.81,5.61-15.18,11.95-23.5,16.62-17.68,9.92-37.58,12.44-57.3,13-21.71.62-43.45-1-65.16-2.18-5.13-.29-8.38.62-11.8,4.63-27.09,31.49-53.89,63.31-82,93.88C1356.52,1436.66,1326.93,1455.49,1293.31,1467.79ZM1199,1239.61c3.53-9.23,6.58-17.85,10.06-26.25,17.91-42.9,36.5-85.38,63.18-123.77,22.77-32.66,51-59.43,86.28-78.48,1.31-.71,2.73-1.2,4.24-1.84,15.5,29.8,34,55.68,66.85,64.75a86.67,86.67,0,0,0,11.8,2.47,102.64,102.64,0,0,1-10.47-3.8c-29.82-12.39-49.42-36.46-66.53-64.42,10.85-4.95,21.21-10,31.9-14.25,1.69-.66,5.47,1.53,7.1,3.46,17.36,20.45,38.57,34.14,64.75,38,1.8.3,3.64.53,5.47.71a88.51,88.51,0,0,0,31.08-3c18.12-5,26.11-19.45,29.06-37.08.35-2,.46-4,.76-6.94,32.09,9.2,59.91,23.91,83.41,45.44q4.85,4.42,9.48,9.3a215.05,215.05,0,0,1,22.33,27.85c-9.91,1.5-18.55,2.9-27.23,4.12-10.37,1.39-20.73,2.61-31.08,4-4.92.65-9.8,1.36-14.68,2.13-12.25,2-16.92,7.52-14.88,19.72.34,2.18.71,4.4,1.12,6.6,3.59,20.27,8,40.36,12.07,60.53.59,3,1.26,6,1.49,7-7.72,2.8-15.3,4.52-21.83,8.09-41.93,22.74-72.8,42.11-119.76,51.16-29.09,5.61-78.67-44.7-88.7-77.77a309.77,309.77,0,0,0-22.7-56.14c6.87,19.79,14.11,39.42,19.1,59.71a227.61,227.61,0,0,1,5.11,27.37c3.53,30.16,2.06,60.16-2.31,90.26-28.86-15.53-59.39-23.78-90.67-29.78C1236.4,1245.31,1217.73,1242.58,1199,1239.61Zm221.77-273c-.46-11.16,1-22.38,1.81-34.9,26.82,9.5,53.68,10.25,81.35,6.64,1.31,12.89,2.77,25,3.69,37.24.46,5.86,2.61,8.63,8.68,9.2.71.07,1.49.18,2.24.3,4.49.73,9,2.2,13.93,3.37-7.74,32.68-22.68,44.45-55.61,42.55-1.33-.07-2.63-.18-3.94-.32-28.49-2.77-51.07-17.59-70.15-38.62.59-.73.76-1,.92-1.07C1418,988.87,1421.25,979.71,1420.74,966.63Zm-79.91-168A37.57,37.57,0,0,1,1345,784c6.65-12.27,19.29-14.17,30.49-4.76,4.26,3.57,7.63,8.18,11.82,12.73a33.25,33.25,0,0,0,4.92-3.25c25.77-24.57,55.29-43.9,86-61.63,23.77-13.67,47.73-27.32,67-47.36,6.3-6.62,12.07-13.79,18.35-21,21.07,12.44,35.68,29.57,41.36,53.78,7.28,31.3,5.36,62.82,5.17,94.79-.23,39.85-35.2,95.83-73.7,106.78-49.93,14.15-102.24-6-133.84-52.43-6.14-9-10.31-19.38-15-29.32-1.83-3.91-3.59-5.61-8.17-3.84C1357.48,837.07,1339.16,823,1340.83,798.59Zm277,15.53v-51.3C1630.6,777,1630.28,800.7,1617.78,814.12Zm-31.09,406.43c-7.26.62-13.67,1.17-20.86,1.76,6.05-8.38,11.22-15.46,17-23.45C1584.2,1206.35,1585.34,1212.9,1586.69,1220.55ZM1712,1121c5.68,15.41,11.08,29.93,16.78,45.23C1711.56,1161.37,1703.29,1139.75,1712,1121Zm26.43,67.72-16.2,6.46c1.84-7.81,3.26-13.81,4.68-19.79l3.18-.34C1732.77,1179.47,1735.4,1183.84,1738.43,1188.76Zm10.85-133c13.38,0,26.73,0,40.08,0,8.2,0,16.4-.18,24.62-.27,10.36-.07,13.79,2.33,17.36,12.69,5.87,17.17,11.27,34.58,17.41,51.69q3.26,9.14,6.6,18.21c6.71,18.2,13.55,36.34,20.29,54.53.5,1.35.75,2.79,1.17,4.21l-2.43,1.65c-1.79-2.66-4.24-5.06-5.36-8q-6.87-18-13.67-36.1c-4.84-12.87-9.65-25.76-14.34-38.68-5.45-14.91-10.35-30-15.3-45.11-2.8-8.48-8.36-12-17.34-11.87-16.17.25-32.31-.14-48.46-.37-3.53-.09-7.1-.46-10.63-.66Zm239.86-90.22c3.81-.48,7.79-1,12.47-1.58V930.65c1.57,1.28,2.83,2.31,4.09,3.37,9.81,8,20.53,8.86,31.61,3.32,23.25-11.62,33.05-32.27,38.45-57.4a36.26,36.26,0,0,0-5,1.63c-30.67,16.32-63.26,20.7-96.79,16-2.36-.32-4.69-.71-7.07-1.12a61.81,61.81,0,0,1-34.56-18.51A89.08,89.08,0,0,1,1917.6,857c-11.41-22-16.24-46-18-70.38-1.28-17.48-1.92-35-2.56-52.54-.44-12.46-.89-24.9-1.42-37.33-.21-4.68,1.56-6.6,5.68-9.21,7.86-5,14.91-11.38,21.67-17.93s13.39-12.62,23.29-14.48a9,9,0,0,1,1.42,2.61c4.26,34.95,58.13,46.57,82,21.37,5.38-5.68,11.06-7.67,18.43-6.78,8.41.94,16.81,1.45,23.3,2,0,7.72-.78,15.48.2,23,1.12,8.75,6.23,15.85,13.93,20.29,4.14,2.4,4.53,4.83,3.73,9.27-3.6,19.4,0,37.77,10.15,54.74,1.6,2.71,4,4.88,7.33,8.8,1.62-5.13,2.88-8.36,3.59-11.7,2.66-12.14,8.18-22.61,17.5-31,9.09-8.2,17.59-7.9,26.4.73C2172,765.84,2166,797.12,2143,807c-1.88.8-3.85,2-5.79,1.95-12.74-.23-17.34,7.6-19.27,18.55a19.66,19.66,0,0,1-2.08,6.11,11.21,11.21,0,0,1-1.1,1.67c-8.43,10.47-8,22.73-8,35.09,0,15.46-.16,30.94-.27,46.43-.12,10.44-.16,20.86-.23,31.33-.1,11.72-.05,11.7,11.82,14,1.71.34,3.41.91,5.47,1.46-2,13.88-10.08,22.72-20.93,28.81-26.57,14.94-54.9,19.91-84.59,12.1a28.06,28.06,0,0,1-2.83-.9h0c-6.57-2.26-12.87-6.41-18.46-10.65C1988,986.35,1987.72,976.34,1989.14,965.57Zm329.78,312.63c-.78-17.91-.87-36-2.79-53.8-4.6-43.31-8.93-86.76-15.46-129.81-7.08-46.63-31.24-82.41-74.18-104.21-5.57-2.82-11.18-5.5-16.88-8A363.92,363.92,0,0,0,2120,956c-4.58-.74-6.68-2.16-6.68-7.22q-.07-19.14-.28-38.32-.27-22.4-.69-44.77c0-4.28,1.49-6.39,5.46-8,17.75-7,31-17.13,40.42-30.19,9.53-13.26,14.93-29.52,16.74-48.48,2.73-28.22,8.22-55.79,21.55-81.29a150.87,150.87,0,0,0,9.62-23.47c10-30.6,12.6-60.69-5.91-89.6-5.24-8.11-8.88-17.24-13.3-25.92.62-.35,1.14-.69,1.69-1.06,6.14,9.87,12.23,19.79,18.37,29.66.8-.25,1.65-.5,2.45-.76-.85-4.55-1-9.29-2.66-13.55-7.81-20.52-31.26-35-55.92-35.29-2.91,0-6.87-1-8.52-2.94-14.3-17.17-31.52-24.55-53.87-18.8-19.49,5.08-39.1,4.56-58.59-.94-7.4-2.11-14.91-4.37-22.51-4.9s-15.6,1.08-23.43,1.65c-3.67.32-7.56,1.23-11,.43-19-4.53-38-6.73-57-.23-19.93,6.83-31.93,20.62-34.72,41.89-.3,2.2-.62,4.42-.92,6.53-19-1.19-33,5.11-44.13,19.68-16.38,21.41-19.31,56.29-3.51,79C1841,671,1849.32,682,1855,695.69c5.45,13.37,18.59,19.08,33.5,19.63.23,1.83.51,3.29.58,4.83.2,3.55.43,7.07.66,10.62,1,18.46,2,37,3.6,55.4,2,23.05,5.79,45.79,15.23,67.25a97.45,97.45,0,0,0,16.94,26.77c12.42,13.67,28.52,21.87,48.51,24.32a95.34,95.34,0,0,0,11.91.81c2.73,0,5.41,0,7.9,0a23.61,23.61,0,0,1,.76,3.29c.62,10.27,1.24,20.5,1.76,30.74.28,5.84,2.71,13.88-.14,17-3.27,3.64-11.29,3.07-17.29,4-1.62.25-3.27.52-4.9.8-43,7.63-80.62,25.4-109.18,60.07-3.25,3.92-6.32,8-9.45,12.12-2.11,2.84-4.29,5.73-6.56,8.7-1.28-2-2.19-3.2-2.88-4.55-5.5-11.55-14.79-16.43-27.35-16-8.47.28-16.9.28-25.39.21-24.4-.16-48.74-.09-73.14-.66-22-.55-37.6,22.71-29.45,39.87.48,1,.37,2.31.6,3.87-10.9,1.74-21.21,3.64-31.65,4.79-2.32.27-5.66-1.54-7.36-3.48-6.52-7.52-12.11-15.94-19-23.16a28.44,28.44,0,0,1-2.18-2.61,17.43,17.43,0,0,1-4-12c0-.65.12-1.29.23-1.93,2.18-12.85,4.35-25.79,7.6-38.38a139.81,139.81,0,0,0,2.73-56.48c-2.66-17.75-8-34.65-14.38-51.12-3.53-9-7.4-17.93-11.32-26.8-.91-2.06-2.56-4.72-2-6.39,3.49-9.82,2-21.67,12.56-28.65a15.81,15.81,0,0,0,6.2-9.43c1.83-9.92,3.85-20.09,3.42-30a31.12,31.12,0,0,0-12.9-23.41c7-14.93,15.25-28.49,19.83-43.15,13.84-44.25-7.48-80.25-45.71-92a7.47,7.47,0,0,1-4.21-3.76c-9.9-25.12-30.72-37.74-54.15-46.93-33.46-13.07-67.79-11.65-102.37-5-64.56,12.37-109.3,47.79-130.85,110.94-12.94,37.88-20.13,76.81-23.24,116.6-2.84,36.34-6.51,72.62-17,107.78C1254,925.4,1243.79,949,1222.88,967c-45,38.59-41.63,105.58,6.58,140.18,5.74,4.15,11.93,7.74,18.18,11.77-1.3,2.66-2.4,4.93-3.46,7.22-16.21,36-32.5,71.91-48.46,108-4.12,9.25-2.84,10.74,7.38,12.23,6.15.87,12.32,1.72,18.71,2.61-3.23,13.58-5.8,27-7.72,40.49a459.58,459.58,0,0,0-4.44,79.43c.43,14.7,1.19,29.38,3.66,43.79a144.11,144.11,0,0,0,9.6,33.09c.27.6.52,1.2.8,1.77,12.34,27,33.34,37.83,61.81,28.33,20.2-6.78,39.14-17.59,58.63-26.61,2.52-1.15,5.09-2.16,7.65-3.26.78.94.74.87,1.51,1.81-28.4,45.15-54.5,99.08-71.48,149.83l418.46-.57c-7.42-28.88-16.14-61.63-23.29-89.5,13-6.12,22.79-15.56,31.31-26.53,7.4-9.5,13.76-20.08,20.47-30.71,5.87,11.43,11.59,22.77,19.59,31.61a47.52,47.52,0,0,0,26.45,15.57c19.69,4.16,37.87-.68,55.92-9.36h0q5.27-2.54,10.52-5.46c-3.37,34.2-8.61,79.91-12.21,115-.29,2.8-.57,5.48-.82,8.11,7.42,3.21,7.56-2,8-6.23,0-.64.09-1.26.13-1.88,2.89-35,7.88-83.45,10.72-117.92s5.59-68.8,8.32-103.23q1.23-15,2.45-30c1.12-14,1.78-28,2.68-42.21,2.84-.16,4.88-.23,6.89-.39,27.35-1.88,54.74-3.53,82.06-5.82,5.61-.48,9.73.12,13.88,4,3.57,3.32,7.1,6.69,10.67,10,20.09,18.69,40.52,37.08,60,56.36,35.43,34.84,72.26,67.79,115,93.4a352,352,0,0,0,43.1,22.06c25,10.62,47.11,4.55,66.26-14.11,3.8-3.74,8.09-6.92,12.3-10.4.92,12.21,1.92,25.15,2.82,38.11q3.3,48.38,6.5,96.76a9.45,9.45,0,0,0,.69,3.39c.87,2,2.65,2.5,6.09,1,.18-.35.39-.69.57-1-1.23-15.46-2.49-30.55-3.59-45.66-2.41-33-4.84-66-6.94-99-.23-3.3,1-6.89,2.4-10,4.93-11.84,11.09-23.23,15.16-35.29,11.89-35.09,16.45-71.37,15.46-108.38-.09-2.64.71-7,2.32-7.72C2318.46,1288.78,2319.15,1283.74,2318.92,1278.2Z"/><path d="M2231.66,1524.3q-16.47,10.48-33,21c-.53-.87-1.07-1.71-1.63-2.58q16.6-10.28,33.18-20.58Z"/><path d="M2212.29,1518.5l-30.73,9.37-.87-2.81,30.84-9.1C2211.8,1516.81,2212,1517.65,2212.29,1518.5Z"/><path d="M2237.39,1541.73q-9.6,7.66-19.21,15.31l-1.41-1.75q9.41-7.76,18.86-15.5C2236.21,1540.43,2236.79,1541.08,2237.39,1541.73Z"/><path d="M2047.71,1048.13c-20.37,7.88-55.85-1.74-71.73-18.87-13.84-14.93-18.9-39.74-10.87-55.54-3.39,23,.61,43.47,19.7,58.66C2003.07,1046.91,2025.11,1047.17,2047.71,1048.13Z"/><path d="M2299.53,1255.21c-.09.92-.2,1.86-.29,2.79l-45.85-5.15c.07-.74.15-1.47.22-2.19C2269.25,1248.56,2284.43,1251.47,2299.53,1255.21Z"/><path d="M1318.26,1233.22c-.11.66-.26,1.32-.37,1.94q-20.76-4-41.48-8l-41.86-8c.15-.92.33-1.84.52-2.76a345.34,345.34,0,0,1,45.6,6.54A332.79,332.79,0,0,1,1318.26,1233.22Z"/><path d="M2198,1464.71c-.83,1.11-1.63,2.23-2.45,3.37l-49-28.65c.65-1.1,1.27-2.19,1.9-3.28Z"/><rect class="cls-4" width="853.33" height="1600"/></svg>